<svg width="210" height="50" viewBox="0 0 210 50" fill="none" xmlns="http://www.w3.org/2000/svg">
<g clip-path="url(#clip0_1078_543)">
<path d="M11.6931 11.1016C13.1207 10.7064 14.5993 10.5272 16.0799 10.5697C18.1546 10.6011 20.1442 11.3995 21.6651 12.8109C22.0804 13.1994 22.433 13.6566 22.8275 14.072C23.0128 14.2662 23.2309 14.4276 23.5357 14.6905C23.6277 14.4369 23.6938 14.1746 23.7329 13.9076C23.7509 12.6196 23.7837 11.3287 23.7329 10.0437C23.6894 8.56024 23.3319 7.10281 22.6841 5.76751C21.5366 3.42768 19.6719 2.58498 17.2633 3.23643C16.6226 3.42164 16.0004 3.66573 15.4046 3.96557C14.4603 4.42278 13.5519 4.94872 12.6165 5.42087C10.996 6.27032 9.27097 6.90327 7.48564 7.30349C6.91188 8.58546 6.63398 9.93019 6.11401 11.4453C6.79235 11.505 7.25853 11.5708 7.72769 11.5797C9.06537 11.6067 10.4002 11.4458 11.6931 11.1016Z" fill="url(#paint0_linear_1078_543)"/>
<path d="M35.2319 23.5208C35.5526 23.6044 35.8793 23.6623 36.2091 23.6941C37.6435 23.6941 39.0778 23.6941 40.5092 23.6254C41.8023 23.5534 43.0685 23.2275 44.2356 22.6662C46.4171 21.6232 47.2239 19.7526 46.8474 17.9088C46.6448 16.7784 46.2528 15.6903 45.6879 14.6904C44.5745 12.849 43.6837 10.8819 43.0343 8.8304C42.8819 8.33434 42.6937 7.84725 42.5174 7.33625L38.4742 6.0752C38.4234 6.81928 38.3726 7.33326 38.3607 7.85322C38.3622 9.14465 38.5463 10.4294 38.9075 11.6693C39.3205 13.2528 39.4779 14.8921 39.3737 16.5252C39.3223 18.0649 38.8009 19.5519 37.8796 20.7865C37.2912 21.4736 36.6636 22.1262 35.9999 22.7409C35.7728 22.95 35.5606 23.1772 35.2319 23.5208Z" fill="url(#paint1_linear_1078_543)"/>
<path d="M12.1175 29.1538C12.7289 28.3614 13.4309 27.6433 14.2093 27.0142C14.3767 26.8678 14.6396 26.7811 14.55 26.4165C14.3852 26.3611 14.2149 26.3241 14.042 26.306C12.5478 26.306 11.0746 26.2133 9.60736 26.3328C8.51687 26.4347 7.44357 26.6736 6.41288 27.0441C5.64751 27.3144 4.94283 27.7327 4.33901 28.2752C2.89866 29.5841 2.75522 31.2635 3.32897 33.0176C3.65103 33.9663 4.06122 34.8827 4.55417 35.7549C5.52536 37.515 6.42185 39.299 6.9448 41.2444C7.0195 41.5193 7.11812 41.7913 7.21076 42.0602C7.26927 42.2417 7.37334 42.4051 7.51303 42.5348C7.65272 42.6646 7.82336 42.7563 8.00863 42.8013C8.90511 43.0792 9.8016 43.3989 10.722 43.6978C10.8949 43.7334 11.0715 43.7484 11.2479 43.7426C11.5796 43.39 11.5468 42.9985 11.5468 42.628C11.6364 40.9396 11.3226 39.299 10.9222 37.6764C10.6018 36.3288 10.49 34.94 10.5905 33.5585C10.6653 31.974 11.1955 30.4446 12.1175 29.1538Z" fill="url(#paint2_linear_1078_543)"/>
<path d="M38.1604 38.9104C37.4754 39.1187 36.7764 39.2775 36.0686 39.3855C32.665 39.8337 29.7334 38.9193 27.4534 36.2478C27.306 36.0592 27.1462 35.8805 26.9752 35.7129C26.8099 35.5968 26.6337 35.4967 26.4493 35.4141C26.3762 35.6194 26.3242 35.8317 26.2939 36.0476C26.2939 37.5417 26.264 39.012 26.2939 40.4912C26.3603 41.9307 26.7625 43.3347 27.4683 44.5911C28.4216 46.3841 29.9874 47.1431 32.0015 46.8622C33.2327 46.6661 34.4134 46.2306 35.4769 45.5802C36.7856 44.7892 38.1616 44.1152 39.5888 43.5661C40.3508 43.2882 41.1188 43.0282 41.8928 42.7772C42.2245 42.6696 42.5412 42.5441 42.6578 42.1945C43.0313 41.0679 43.5543 39.9891 43.7455 38.6085C43.3967 38.5084 43.0412 38.4335 42.6817 38.3844C41.1558 38.306 39.6276 38.4838 38.1604 38.9104Z" fill="url(#paint3_linear_1078_543)"/>
<path d="M23.73 40.0519C23.7778 38.7161 23.7509 37.3774 23.73 36.0416C23.6909 35.7802 23.6238 35.5237 23.5298 35.2766C22.5825 36.1731 21.7756 37.0427 20.8702 37.7898C19.9757 38.519 18.9103 39.0085 17.7743 39.2122C16.6089 39.4273 15.4136 39.4722 14.0748 39.6066C14.0748 40.0728 14.0748 40.4463 14.0748 40.8019C14.0748 41.6984 14.0599 42.6129 14.036 43.5153C14.0208 43.802 13.9879 44.0874 13.9374 44.37C13.8839 44.6044 13.9112 44.85 14.0148 45.0669C14.1184 45.2839 14.2922 45.4595 14.5081 45.5653C15.5656 46.2222 16.7427 46.663 17.9716 46.8622C19.8183 47.1311 21.2587 46.4976 22.2657 44.9348C22.4519 44.6573 22.6119 44.3632 22.7438 44.0562C23.308 42.7907 23.6419 41.4347 23.73 40.0519Z" fill="url(#paint4_linear_1078_543)"/>
<path d="M5.55822 22.5675C6.79372 23.2053 8.15261 23.5682 9.5416 23.6313C10.97 23.7239 12.4044 23.6821 13.8388 23.6761C14.1693 23.6388 14.4962 23.5738 14.8159 23.4819C14.3378 23.0575 13.9941 22.7438 13.6415 22.4419C12.1862 21.1899 11.1553 19.6658 10.7967 17.7653C10.6812 16.9161 10.6143 16.0611 10.5965 15.2043C10.5696 14.8308 10.6772 14.4304 10.3215 14.0927C9.45195 14.0927 8.54949 14.1166 7.64703 14.0927C6.74456 14.0688 5.85405 13.9702 4.83206 13.8984C4.07333 14.9144 3.5303 16.0746 3.23631 17.3081C2.59682 19.618 3.42458 21.4229 5.55822 22.5675Z" fill="url(#paint5_linear_1078_543)"/>
<path d="M26.2879 13.7759C26.3296 14.1136 26.3945 14.4481 26.4821 14.777C27.02 14.1793 27.3278 13.8177 27.6446 13.4711C28.7562 12.2077 30.2172 11.302 31.8431 10.8683C32.7741 10.6556 33.7272 10.5553 34.682 10.5695C35.0914 10.5695 35.5486 10.692 35.9371 10.2706C35.9102 8.65397 35.7518 6.98352 36.0656 5.32801C36.0936 5.1603 36.0635 4.98805 35.9804 4.83972C35.8973 4.69139 35.766 4.57586 35.6084 4.51221C34.6255 3.91825 33.5615 3.47031 32.4497 3.18242C30.2354 2.68637 28.3498 3.60377 27.3547 5.65373C26.7027 6.93717 26.3396 8.34779 26.2909 9.78653C26.267 11.0984 26.2789 12.4371 26.2879 13.7759Z" fill="url(#paint6_linear_1078_543)"/>
<path d="M44.8871 27.6894C43.4581 26.8059 41.8157 26.3276 40.1357 26.3058C38.7551 26.2491 37.3686 26.2879 35.985 26.3058C35.7064 26.3421 35.4315 26.402 35.1632 26.4851C35.5248 26.784 35.725 26.9662 35.9312 27.1336C38.1814 28.9475 39.4245 31.2514 39.3737 34.1889C39.357 34.4746 39.357 34.7609 39.3737 35.0466C39.416 35.3245 39.4738 35.5999 39.547 35.8713L45.1142 36.0058C45.9599 34.9181 46.2169 34.3802 46.7219 32.6559C47.3076 30.6359 46.6502 28.8309 44.8871 27.6894Z" fill="url(#paint7_linear_1078_543)"/>
<path d="M27.1546 26.5C26.9528 26.5045 26.7522 26.5325 26.5569 26.5837C26.5083 26.7208 26.4762 26.8633 26.4613 27.008C26.7452 29.3568 27.3757 31.598 28.6965 33.5822C30.358 36.0894 32.7188 37.1383 35.6981 36.8186C36.5946 36.7229 36.7291 36.5855 36.8755 35.686C36.9155 35.4509 36.9384 35.2132 36.9442 34.9748C36.9831 32.4527 35.9969 30.4147 33.9559 28.9474C31.9149 27.4802 29.608 26.7929 27.1546 26.5Z" fill="url(#paint8_linear_1078_543)"/>
<path d="M28.6159 16.4834C27.4206 18.36 26.8229 20.4667 26.4763 22.6512C26.461 22.886 26.461 23.1216 26.4763 23.3564C26.6952 23.4137 26.9196 23.4477 27.1456 23.458C28.8092 23.2983 30.4333 22.8556 31.9478 22.1491C33.14 21.6517 34.2164 20.9131 35.1094 19.9796C35.8489 19.1953 36.3901 18.2455 36.6879 17.2095C36.9858 16.1735 37.0316 15.0813 36.8217 14.024C36.802 13.805 36.7025 13.601 36.5422 13.4506C36.3819 13.3002 36.1719 13.2139 35.9521 13.2082C33.1013 12.8884 30.6121 13.3696 28.6159 16.4834Z" fill="url(#paint9_linear_1078_543)"/>
<path d="M21.3363 33.5585C22.6602 31.5504 23.1622 29.2733 23.5238 26.9514C23.5238 26.8677 23.476 26.7721 23.4162 26.5749C23.2617 26.5242 23.1006 26.496 22.9381 26.4912C22.1341 26.5974 21.3362 26.745 20.5474 26.9335C18.6499 27.4534 16.824 28.1467 15.3418 29.5213C13.4771 31.2545 12.8167 33.4061 13.1544 35.8894C13.2411 36.5229 13.4353 36.7231 14.0509 36.8098C16.9286 37.2162 19.5852 36.2091 21.3363 33.5585Z" fill="url(#paint10_linear_1078_543)"/>
<path d="M14.1794 13.1842C13.4802 13.253 13.2501 13.4831 13.1574 14.1495C12.7958 16.818 13.5728 19.0622 15.7214 20.7416C17.8699 22.421 20.401 23.2488 23.1234 23.461C23.204 23.461 23.2907 23.3892 23.3744 23.3504C23.4043 23.3145 23.455 23.2847 23.464 23.2458C23.5089 23.1111 23.5282 22.9692 23.5208 22.8274C23.1234 20.7655 22.711 18.7126 21.6173 16.8688C19.6749 13.5906 17.1707 12.8914 14.1794 13.1842Z" fill="url(#paint11_linear_1078_543)"/>
<path d="M24.982 4.66177C25.6078 4.65713 26.2068 4.40729 26.6504 3.9659C27.0941 3.52452 27.3469 2.92677 27.3547 2.30103C27.3375 1.67431 27.0723 1.08004 26.6174 0.64864C26.1625 0.217243 25.555 -0.0160223 24.9282 4.59347e-05C24.3257 0.0106072 23.7504 0.253263 23.3223 0.677458C22.8942 1.10165 22.6463 1.67467 22.6302 2.27712C22.6317 2.90345 22.8789 3.50418 23.3187 3.95012C23.7585 4.39606 24.3558 4.6516 24.982 4.66177Z" fill="url(#paint12_linear_1078_543)"/>
<path d="M47.5825 22.6153C47.272 22.6276 46.967 22.701 46.6849 22.8313C46.4028 22.9616 46.1492 23.1463 45.9385 23.3747C45.7278 23.6031 45.5643 23.8708 45.4572 24.1625C45.3501 24.4542 45.3016 24.7642 45.3144 25.0747C45.3451 25.6844 45.6133 26.2579 46.0614 26.6725C46.5096 27.087 47.1022 27.3098 47.7125 27.293C48.3228 27.2762 48.9023 27.0212 49.327 26.5826C49.7517 26.1441 49.9879 25.5567 49.9851 24.9462C49.9824 24.6348 49.9179 24.327 49.7953 24.0407C49.6727 23.7545 49.4945 23.4954 49.2709 23.2786C49.0474 23.0617 48.7831 22.8914 48.4933 22.7776C48.2034 22.6637 47.8938 22.6086 47.5825 22.6153Z" fill="url(#paint13_linear_1078_543)"/>
<path d="M4.65279 25.0031C4.664 24.6905 4.61211 24.379 4.50024 24.0869C4.38837 23.7949 4.21882 23.5284 4.00169 23.3034C3.78456 23.0783 3.52431 22.8993 3.23648 22.7771C2.94864 22.6548 2.63913 22.5918 2.32641 22.5918C2.01369 22.5918 1.70417 22.6548 1.41634 22.7771C1.1285 22.8993 0.868257 23.0783 0.651127 23.3034C0.433997 23.5284 0.264438 23.7949 0.152572 24.0869C0.040705 24.379 -0.0111731 24.6905 2.94371e-05 25.0031C0.021629 25.6056 0.276182 26.1763 0.710103 26.5949C1.14402 27.0136 1.72346 27.2476 2.32641 27.2476C2.92936 27.2476 3.50879 27.0136 3.94271 26.5949C4.37663 26.1763 4.63119 25.6056 4.65279 25.0031Z" fill="url(#paint14_linear_1078_543)"/>
<path d="M25.0388 45.2993C24.4164 45.3118 23.8222 45.5616 23.3778 45.9976C22.9335 46.4337 22.6725 47.023 22.6482 47.6451C22.6501 48.2451 22.8804 48.8218 23.2923 49.2581C23.7041 49.6944 24.2666 49.9575 24.8655 49.9939C25.4918 50.0201 26.1033 49.7992 26.5683 49.3789C27.0333 48.9586 27.3147 48.3725 27.3518 47.7467C27.3477 47.1218 27.1067 46.5216 26.6774 46.0674C26.2482 45.6131 25.6626 45.3386 25.0388 45.2993Z" fill="url(#paint15_linear_1078_543)"/>
</g>
<path d="M63.3594 33.625V45H61.0156V33.625H63.3594ZM67.8906 38.4844V40.3125H62.7188V38.4844H67.8906ZM68.4375 33.625V35.4609H62.7188V33.625H68.4375Z" fill="#333333"/>
<path d="M80.1094 43.1719V45H74.3828V43.1719H80.1094ZM75.1406 33.625V45H72.7969V33.625H75.1406Z" fill="#333333"/>
<path d="M93.2812 39.0469V39.5859C93.2812 40.4505 93.1641 41.2266 92.9297 41.9141C92.6953 42.6016 92.3646 43.1875 91.9375 43.6719C91.5104 44.151 91 44.5182 90.4062 44.7734C89.8177 45.0286 89.1641 45.1562 88.4453 45.1562C87.7318 45.1562 87.0781 45.0286 86.4844 44.7734C85.8958 44.5182 85.3854 44.151 84.9531 43.6719C84.5208 43.1875 84.1849 42.6016 83.9453 41.9141C83.7109 41.2266 83.5938 40.4505 83.5938 39.5859V39.0469C83.5938 38.1771 83.7109 37.401 83.9453 36.7188C84.1797 36.0312 84.5104 35.4453 84.9375 34.9609C85.3698 34.4766 85.8802 34.1068 86.4688 33.8516C87.0625 33.5964 87.7161 33.4688 88.4297 33.4688C89.1484 33.4688 89.8021 33.5964 90.3906 33.8516C90.9844 34.1068 91.4948 34.4766 91.9219 34.9609C92.3542 35.4453 92.6875 36.0312 92.9219 36.7188C93.1615 37.401 93.2812 38.1771 93.2812 39.0469ZM90.9141 39.5859V39.0312C90.9141 38.4271 90.8594 37.8958 90.75 37.4375C90.6406 36.9792 90.4792 36.5938 90.2656 36.2812C90.0521 35.9688 89.7917 35.7344 89.4844 35.5781C89.1771 35.4167 88.8255 35.3359 88.4297 35.3359C88.0339 35.3359 87.6823 35.4167 87.375 35.5781C87.0729 35.7344 86.8151 35.9688 86.6016 36.2812C86.3932 36.5938 86.2344 36.9792 86.125 37.4375C86.0156 37.8958 85.9609 38.4271 85.9609 39.0312V39.5859C85.9609 40.1849 86.0156 40.7161 86.125 41.1797C86.2344 41.638 86.3958 42.026 86.6094 42.3438C86.8229 42.6562 87.0833 42.8932 87.3906 43.0547C87.6979 43.2161 88.0495 43.2969 88.4453 43.2969C88.8411 43.2969 89.1927 43.2161 89.5 43.0547C89.8073 42.8932 90.0651 42.6562 90.2734 42.3438C90.4818 42.026 90.6406 41.638 90.75 41.1797C90.8594 40.7161 90.9141 40.1849 90.9141 39.5859Z" fill="#333333"/>
<path d="M100.711 43.1953L102.977 33.625H104.242L104.531 35.2188L102.117 45H100.758L100.711 43.1953ZM99.5469 33.625L101.422 43.1953L101.266 45H99.75L97.2266 33.625H99.5469ZM106.523 43.1562L108.375 33.625H110.695L108.18 45H106.664L106.523 43.1562ZM104.953 33.625L107.234 43.2344L107.172 45H105.812L103.383 35.2109L103.695 33.625H104.953Z" fill="#333333"/>
<path d="M122.602 43.1719V45H116.547V43.1719H122.602ZM117.312 33.625V45H114.969V33.625H117.312ZM121.812 38.2578V40.0391H116.547V38.2578H121.812ZM122.594 33.625V35.4609H116.547V33.625H122.594Z" fill="#333333"/>
<path d="M126.969 33.625H131.211C132.081 33.625 132.828 33.7552 133.453 34.0156C134.083 34.276 134.568 34.6615 134.906 35.1719C135.245 35.6823 135.414 36.3099 135.414 37.0547C135.414 37.6641 135.31 38.1875 135.102 38.625C134.898 39.0573 134.609 39.4193 134.234 39.7109C133.865 39.9974 133.43 40.2266 132.93 40.3984L132.188 40.7891H128.5L128.484 38.9609H131.227C131.638 38.9609 131.979 38.888 132.25 38.7422C132.521 38.5964 132.724 38.3932 132.859 38.1328C133 37.8724 133.07 37.5703 133.07 37.2266C133.07 36.862 133.003 36.5469 132.867 36.2812C132.732 36.0156 132.526 35.8125 132.25 35.6719C131.974 35.5312 131.628 35.4609 131.211 35.4609H129.312V45H126.969V33.625ZM133.328 45L130.734 39.9297L133.211 39.9141L135.836 44.8906V45H133.328Z" fill="#333333"/>
<path d="M146.141 42.0234C146.141 41.8203 146.109 41.638 146.047 41.4766C145.99 41.3099 145.88 41.1589 145.719 41.0234C145.557 40.8828 145.331 40.7448 145.039 40.6094C144.747 40.474 144.37 40.3333 143.906 40.1875C143.391 40.0208 142.901 39.8333 142.438 39.625C141.979 39.4167 141.573 39.1745 141.219 38.8984C140.87 38.6172 140.594 38.2917 140.391 37.9219C140.193 37.5521 140.094 37.1224 140.094 36.6328C140.094 36.1589 140.198 35.7292 140.406 35.3438C140.615 34.9531 140.906 34.6198 141.281 34.3438C141.656 34.0625 142.099 33.8464 142.609 33.6953C143.125 33.5443 143.69 33.4688 144.305 33.4688C145.143 33.4688 145.875 33.6198 146.5 33.9219C147.125 34.224 147.609 34.638 147.953 35.1641C148.302 35.6901 148.477 36.2917 148.477 36.9688H146.148C146.148 36.6354 146.078 36.3438 145.938 36.0938C145.802 35.8385 145.594 35.638 145.312 35.4922C145.036 35.3464 144.688 35.2734 144.266 35.2734C143.859 35.2734 143.521 35.3359 143.25 35.4609C142.979 35.5807 142.776 35.7448 142.641 35.9531C142.505 36.1562 142.438 36.3854 142.438 36.6406C142.438 36.8333 142.484 37.0078 142.578 37.1641C142.677 37.3203 142.823 37.4661 143.016 37.6016C143.208 37.737 143.445 37.8646 143.727 37.9844C144.008 38.1042 144.333 38.2214 144.703 38.3359C145.323 38.5234 145.867 38.7344 146.336 38.9688C146.81 39.2031 147.206 39.4661 147.523 39.7578C147.841 40.0495 148.081 40.3802 148.242 40.75C148.404 41.1198 148.484 41.5391 148.484 42.0078C148.484 42.5026 148.388 42.9453 148.195 43.3359C148.003 43.7266 147.724 44.0573 147.359 44.3281C146.995 44.599 146.56 44.8047 146.055 44.9453C145.549 45.0859 144.984 45.1562 144.359 45.1562C143.797 45.1562 143.242 45.0833 142.695 44.9375C142.148 44.7865 141.651 44.5599 141.203 44.2578C140.76 43.9557 140.406 43.5703 140.141 43.1016C139.875 42.6328 139.742 42.0781 139.742 41.4375H142.094C142.094 41.7917 142.148 42.0911 142.258 42.3359C142.367 42.5807 142.521 42.7786 142.719 42.9297C142.922 43.0807 143.161 43.1901 143.438 43.2578C143.719 43.3255 144.026 43.3594 144.359 43.3594C144.766 43.3594 145.099 43.3021 145.359 43.1875C145.625 43.0729 145.82 42.9141 145.945 42.7109C146.076 42.5078 146.141 42.2786 146.141 42.0234Z" fill="#333333"/>
<path d="M165.984 42.0234C165.984 41.8203 165.953 41.638 165.891 41.4766C165.833 41.3099 165.724 41.1589 165.562 41.0234C165.401 40.8828 165.174 40.7448 164.883 40.6094C164.591 40.474 164.214 40.3333 163.75 40.1875C163.234 40.0208 162.745 39.8333 162.281 39.625C161.823 39.4167 161.417 39.1745 161.062 38.8984C160.714 38.6172 160.438 38.2917 160.234 37.9219C160.036 37.5521 159.938 37.1224 159.938 36.6328C159.938 36.1589 160.042 35.7292 160.25 35.3438C160.458 34.9531 160.75 34.6198 161.125 34.3438C161.5 34.0625 161.943 33.8464 162.453 33.6953C162.969 33.5443 163.534 33.4688 164.148 33.4688C164.987 33.4688 165.719 33.6198 166.344 33.9219C166.969 34.224 167.453 34.638 167.797 35.1641C168.146 35.6901 168.32 36.2917 168.32 36.9688H165.992C165.992 36.6354 165.922 36.3438 165.781 36.0938C165.646 35.8385 165.438 35.638 165.156 35.4922C164.88 35.3464 164.531 35.2734 164.109 35.2734C163.703 35.2734 163.365 35.3359 163.094 35.4609C162.823 35.5807 162.62 35.7448 162.484 35.9531C162.349 36.1562 162.281 36.3854 162.281 36.6406C162.281 36.8333 162.328 37.0078 162.422 37.1641C162.521 37.3203 162.667 37.4661 162.859 37.6016C163.052 37.737 163.289 37.8646 163.57 37.9844C163.852 38.1042 164.177 38.2214 164.547 38.3359C165.167 38.5234 165.711 38.7344 166.18 38.9688C166.654 39.2031 167.049 39.4661 167.367 39.7578C167.685 40.0495 167.924 40.3802 168.086 40.75C168.247 41.1198 168.328 41.5391 168.328 42.0078C168.328 42.5026 168.232 42.9453 168.039 43.3359C167.846 43.7266 167.568 44.0573 167.203 44.3281C166.839 44.599 166.404 44.8047 165.898 44.9453C165.393 45.0859 164.828 45.1562 164.203 45.1562C163.641 45.1562 163.086 45.0833 162.539 44.9375C161.992 44.7865 161.495 44.5599 161.047 44.2578C160.604 43.9557 160.25 43.5703 159.984 43.1016C159.719 42.6328 159.586 42.0781 159.586 41.4375H161.938C161.938 41.7917 161.992 42.0911 162.102 42.3359C162.211 42.5807 162.365 42.7786 162.562 42.9297C162.766 43.0807 163.005 43.1901 163.281 43.2578C163.562 43.3255 163.87 43.3594 164.203 43.3594C164.609 43.3594 164.943 43.3021 165.203 43.1875C165.469 43.0729 165.664 42.9141 165.789 42.7109C165.919 42.5078 165.984 42.2786 165.984 42.0234Z" fill="#333333"/>
<path d="M180.508 38.2578V40.0859H174.57V38.2578H180.508ZM175.266 33.625V45H172.922V33.625H175.266ZM182.18 33.625V45H179.844V33.625H182.18Z" fill="#333333"/>
<path d="M196.562 39.0469V39.5859C196.562 40.4505 196.445 41.2266 196.211 41.9141C195.977 42.6016 195.646 43.1875 195.219 43.6719C194.792 44.151 194.281 44.5182 193.688 44.7734C193.099 45.0286 192.445 45.1562 191.727 45.1562C191.013 45.1562 190.359 45.0286 189.766 44.7734C189.177 44.5182 188.667 44.151 188.234 43.6719C187.802 43.1875 187.466 42.6016 187.227 41.9141C186.992 41.2266 186.875 40.4505 186.875 39.5859V39.0469C186.875 38.1771 186.992 37.401 187.227 36.7188C187.461 36.0312 187.792 35.4453 188.219 34.9609C188.651 34.4766 189.161 34.1068 189.75 33.8516C190.344 33.5964 190.997 33.4688 191.711 33.4688C192.43 33.4688 193.083 33.5964 193.672 33.8516C194.266 34.1068 194.776 34.4766 195.203 34.9609C195.635 35.4453 195.969 36.0312 196.203 36.7188C196.443 37.401 196.562 38.1771 196.562 39.0469ZM194.195 39.5859V39.0312C194.195 38.4271 194.141 37.8958 194.031 37.4375C193.922 36.9792 193.76 36.5938 193.547 36.2812C193.333 35.9688 193.073 35.7344 192.766 35.5781C192.458 35.4167 192.107 35.3359 191.711 35.3359C191.315 35.3359 190.964 35.4167 190.656 35.5781C190.354 35.7344 190.096 35.9688 189.883 36.2812C189.674 36.5938 189.516 36.9792 189.406 37.4375C189.297 37.8958 189.242 38.4271 189.242 39.0312V39.5859C189.242 40.1849 189.297 40.7161 189.406 41.1797C189.516 41.638 189.677 42.026 189.891 42.3438C190.104 42.6562 190.365 42.8932 190.672 43.0547C190.979 43.2161 191.331 43.2969 191.727 43.2969C192.122 43.2969 192.474 43.2161 192.781 43.0547C193.089 42.8932 193.346 42.6562 193.555 42.3438C193.763 42.026 193.922 41.638 194.031 41.1797C194.141 40.7161 194.195 40.1849 194.195 39.5859Z" fill="#333333"/>
<path d="M205.68 40.9453H202.781V39.1172H205.68C206.128 39.1172 206.492 39.0443 206.773 38.8984C207.055 38.7474 207.26 38.5391 207.391 38.2734C207.521 38.0078 207.586 37.7083 207.586 37.375C207.586 37.0365 207.521 36.7214 207.391 36.4297C207.26 36.138 207.055 35.9036 206.773 35.7266C206.492 35.5495 206.128 35.4609 205.68 35.4609H203.594V45H201.25V33.625H205.68C206.57 33.625 207.333 33.7865 207.969 34.1094C208.609 34.4271 209.099 34.8672 209.438 35.4297C209.776 35.9922 209.945 36.6354 209.945 37.3594C209.945 38.0938 209.776 38.7292 209.438 39.2656C209.099 39.8021 208.609 40.2161 207.969 40.5078C207.333 40.7995 206.57 40.9453 205.68 40.9453Z" fill="#333333"/>
<path d="M66.1466 5.30749V27.6925H61V5.30749H66.1466ZM75.1927 14.7473V18.6217H64.71V14.7473H75.1927ZM76.2031 5.30749V9.19719H64.71V5.30749H76.2031Z" fill="#333333"/>
<path d="M93.7112 23.8182V27.6925H82.1075V23.8182H93.7112ZM83.8599 5.30749V27.6925H78.7133V5.30749H83.8599Z" fill="#333333"/>
<path d="M114.361 16.008V17.0074C114.361 18.7088 114.119 20.236 113.635 21.5889C113.161 22.9418 112.482 24.0949 111.598 25.0481C110.725 26.0013 109.683 26.7342 108.472 27.2467C107.272 27.7489 105.941 28 104.478 28C103.015 28 101.678 27.7489 100.468 27.2467C99.2578 26.7342 98.2053 26.0013 97.3107 25.0481C96.4266 24.0949 95.7425 22.9418 95.2583 21.5889C94.7742 20.236 94.5321 18.7088 94.5321 17.0074V16.008C94.5321 14.3066 94.7742 12.7794 95.2583 11.4265C95.7425 10.0633 96.4213 8.90508 97.2949 7.95187C98.179 6.99866 99.2262 6.27094 100.437 5.76872C101.647 5.25624 102.984 5 104.446 5C105.909 5 107.246 5.25624 108.456 5.76872C109.667 6.27094 110.709 6.99866 111.582 7.95187C112.466 8.90508 113.151 10.0633 113.635 11.4265C114.119 12.7794 114.361 14.3066 114.361 16.008ZM109.167 17.0074V15.9773C109.167 14.8396 109.062 13.8351 108.851 12.9639C108.641 12.0824 108.335 11.3445 107.935 10.75C107.536 10.1555 107.041 9.70967 106.451 9.41243C105.862 9.10495 105.194 8.9512 104.446 8.9512C103.668 8.9512 102.989 9.10495 102.41 9.41243C101.831 9.70967 101.342 10.1555 100.942 10.75C100.552 11.3445 100.252 12.0824 100.042 12.9639C99.8419 13.8351 99.7419 14.8396 99.7419 15.9773V17.0074C99.7419 18.1348 99.8419 19.1393 100.042 20.0207C100.252 20.8919 100.558 21.6299 100.958 22.2346C101.357 22.8393 101.847 23.2955 102.426 23.6029C103.015 23.9104 103.699 24.0642 104.478 24.0642C105.225 24.0642 105.888 23.9104 106.467 23.6029C107.057 23.2955 107.551 22.8393 107.951 22.2346C108.351 21.6299 108.651 20.8919 108.851 20.0207C109.062 19.1393 109.167 18.1348 109.167 17.0074Z" fill="#333333"/>
<path d="M117.518 5.30749H126.343C128.101 5.30749 129.622 5.56373 130.906 6.0762C132.2 6.58868 133.195 7.34715 133.89 8.3516C134.584 9.35606 134.932 10.5963 134.932 12.0722C134.932 13.3021 134.726 14.3476 134.316 15.2086C133.905 16.0695 133.327 16.7819 132.579 17.3456C131.843 17.9093 130.98 18.3654 129.99 18.7139L128.317 19.6056H120.802L120.771 15.7159H126.359C127.128 15.7159 127.764 15.5827 128.269 15.3162C128.775 15.0497 129.154 14.6756 129.406 14.1939C129.669 13.7019 129.801 13.1279 129.801 12.4719C129.801 11.7955 129.669 11.2112 129.406 10.7193C129.143 10.2273 128.754 9.85316 128.238 9.59693C127.733 9.33044 127.101 9.19719 126.343 9.19719H122.665V27.6925H117.518V5.30749ZM130.243 27.6925L125.08 17.7453L130.511 17.7299L135.753 27.4619V27.6925H130.243Z" fill="#333333"/>
<path d="M147.972 9.56618L142.036 27.6925H136.542L145.051 5.30749H148.524L147.972 9.56618ZM152.898 27.6925L146.946 9.56618L146.33 5.30749H149.851L158.392 27.6925H152.898ZM152.645 19.3596V23.234H140.662V19.3596H152.645Z" fill="#333333"/>
<path d="M160.302 5.30749H169.127C170.884 5.30749 172.405 5.56373 173.689 6.0762C174.984 6.58868 175.979 7.34715 176.673 8.3516C177.368 9.35606 177.715 10.5963 177.715 12.0722C177.715 13.3021 177.51 14.3476 177.099 15.2086C176.689 16.0695 176.11 16.7819 175.363 17.3456C174.626 17.9093 173.763 18.3654 172.774 18.7139L171.1 19.6056H163.586L163.554 15.7159H169.143C169.911 15.7159 170.548 15.5827 171.053 15.3162C171.558 15.0497 171.937 14.6756 172.19 14.1939C172.453 13.7019 172.584 13.1279 172.584 12.4719C172.584 11.7955 172.453 11.2112 172.19 10.7193C171.926 10.2273 171.537 9.85316 171.021 9.59693C170.516 9.33044 169.885 9.19719 169.127 9.19719H165.448V27.6925H160.302V5.30749ZM173.026 27.6925L167.864 17.7453L173.295 17.7299L178.536 27.4619V27.6925H173.026Z" fill="#333333"/>
<path d="M186.682 5.30749V27.6925H181.551V5.30749H186.682Z" fill="#333333"/>
<path d="M210 16.008V17.0074C210 18.7088 209.758 20.236 209.274 21.5889C208.8 22.9418 208.121 24.0949 207.237 25.0481C206.364 26.0013 205.322 26.7342 204.111 27.2467C202.912 27.7489 201.58 28 200.117 28C198.654 28 197.318 27.7489 196.107 27.2467C194.897 26.7342 193.844 26.0013 192.95 25.0481C192.066 24.0949 191.382 22.9418 190.897 21.5889C190.413 20.236 190.171 18.7088 190.171 17.0074V16.008C190.171 14.3066 190.413 12.7794 190.897 11.4265C191.382 10.0633 192.06 8.90508 192.934 7.95187C193.818 6.99866 194.865 6.27094 196.076 5.76872C197.286 5.25624 198.623 5 200.086 5C201.549 5 202.885 5.25624 204.096 5.76872C205.306 6.27094 206.348 6.99866 207.221 7.95187C208.106 8.90508 208.79 10.0633 209.274 11.4265C209.758 12.7794 210 14.3066 210 16.008ZM204.806 17.0074V15.9773C204.806 14.8396 204.701 13.8351 204.49 12.9639C204.28 12.0824 203.975 11.3445 203.575 10.75C203.175 10.1555 202.68 9.70967 202.091 9.41243C201.501 9.10495 200.833 8.9512 200.086 8.9512C199.307 8.9512 198.628 9.10495 198.049 9.41243C197.47 9.70967 196.981 10.1555 196.581 10.75C196.191 11.3445 195.891 12.0824 195.681 12.9639C195.481 13.8351 195.381 14.8396 195.381 15.9773V17.0074C195.381 18.1348 195.481 19.1393 195.681 20.0207C195.891 20.8919 196.197 21.6299 196.597 22.2346C196.997 22.8393 197.486 23.2955 198.065 23.6029C198.654 23.9104 199.338 24.0642 200.117 24.0642C200.864 24.0642 201.528 23.9104 202.106 23.6029C202.696 23.2955 203.19 22.8393 203.59 22.2346C203.99 21.6299 204.29 20.8919 204.49 20.0207C204.701 19.1393 204.806 18.1348 204.806 17.0074Z" fill="#333333"/>
<defs>
<linearGradient id="paint0_linear_1078_543" x1="6.11401" y1="8.85441" x2="23.7658" y2="8.85441" gradientUnits="userSpaceOnUse">
<stop stop-color="#971E44"/>
<stop offset="1" stop-color="#C73153"/>
</linearGradient>
<linearGradient id="paint1_linear_1078_543" x1="35.2319" y1="14.8936" x2="46.9341" y2="14.8936" gradientUnits="userSpaceOnUse">
<stop stop-color="#971E44"/>
<stop offset="1" stop-color="#C73153"/>
</linearGradient>
<linearGradient id="paint2_linear_1078_543" x1="3.0152" y1="35.0019" x2="14.5709" y2="35.0019" gradientUnits="userSpaceOnUse">
<stop stop-color="#971E44"/>
<stop offset="1" stop-color="#C73153"/>
</linearGradient>
<linearGradient id="paint3_linear_1078_543" x1="26.282" y1="41.1695" x2="43.7575" y2="41.1695" gradientUnits="userSpaceOnUse">
<stop stop-color="#971E44"/>
<stop offset="1" stop-color="#C73153"/>
</linearGradient>
<linearGradient id="paint4_linear_1078_543" x1="13.9284" y1="41.1038" x2="23.7599" y2="41.1038" gradientUnits="userSpaceOnUse">
<stop stop-color="#971E44"/>
<stop offset="1" stop-color="#C73153"/>
</linearGradient>
<linearGradient id="paint5_linear_1078_543" x1="3.02415" y1="18.7873" x2="14.8129" y2="18.7873" gradientUnits="userSpaceOnUse">
<stop stop-color="#971E44"/>
<stop offset="1" stop-color="#C73153"/>
</linearGradient>
<linearGradient id="paint6_linear_1078_543" x1="26.276" y1="8.89901" x2="36.0835" y2="8.89901" gradientUnits="userSpaceOnUse">
<stop stop-color="#971E44"/>
<stop offset="1" stop-color="#C73153"/>
</linearGradient>
<linearGradient id="paint7_linear_1078_543" x1="35.1662" y1="31.1379" x2="46.9371" y2="31.1379" gradientUnits="userSpaceOnUse">
<stop stop-color="#971E44"/>
<stop offset="1" stop-color="#C73153"/>
</linearGradient>
<linearGradient id="paint8_linear_1078_543" x1="26.4553" y1="31.6907" x2="36.9412" y2="31.6907" gradientUnits="userSpaceOnUse">
<stop stop-color="#971E44"/>
<stop offset="1" stop-color="#C73153"/>
</linearGradient>
<linearGradient id="paint9_linear_1078_543" x1="26.4613" y1="18.2943" x2="36.9412" y2="18.2943" gradientUnits="userSpaceOnUse">
<stop stop-color="#971E44"/>
<stop offset="1" stop-color="#C73153"/>
</linearGradient>
<linearGradient id="paint10_linear_1078_543" x1="13.0707" y1="31.6878" x2="23.5238" y2="31.6878" gradientUnits="userSpaceOnUse">
<stop stop-color="#971E44"/>
<stop offset="1" stop-color="#C73153"/>
</linearGradient>
<linearGradient id="paint11_linear_1078_543" x1="13.0708" y1="18.2912" x2="23.5268" y2="18.2912" gradientUnits="userSpaceOnUse">
<stop stop-color="#971E44"/>
<stop offset="1" stop-color="#C73153"/>
</linearGradient>
<linearGradient id="paint12_linear_1078_543" x1="22.6332" y1="2.33091" x2="27.3577" y2="2.33091" gradientUnits="userSpaceOnUse">
<stop stop-color="#971E44"/>
<stop offset="1" stop-color="#C73153"/>
</linearGradient>
<linearGradient id="paint13_linear_1078_543" x1="45.3144" y1="24.9521" x2="49.9851" y2="24.9521" gradientUnits="userSpaceOnUse">
<stop stop-color="#971E44"/>
<stop offset="1" stop-color="#C73153"/>
</linearGradient>
<linearGradient id="paint14_linear_1078_543" x1="2.93847e-05" y1="24.9493" x2="4.65279" y2="24.9493" gradientUnits="userSpaceOnUse">
<stop stop-color="#971E44"/>
<stop offset="1" stop-color="#C73153"/>
</linearGradient>
<linearGradient id="paint15_linear_1078_543" x1="22.6362" y1="47.6511" x2="27.3518" y2="47.6511" gradientUnits="userSpaceOnUse">
<stop stop-color="#971E44"/>
<stop offset="1" stop-color="#C73153"/>
</linearGradient>
<clipPath id="clip0_1078_543">
<rect width="49.9851" height="50" fill="white"/>
</clipPath>
</defs>
</svg>
